<svg width="300" height="62" viewBox="0 0 300 62" fill="none" xmlns="http://www.w3.org/2000/svg">
<g filter="url(#filter0_d_224_405)">
<path d="M286.186 13.3761C281.054 19.9046 275.921 26.4335 270.789 32.962C270.524 33.2984 270.688 33.7014 270.938 33.987C276.07 39.8726 281.202 45.7578 286.335 51.643C287.086 52.5046 288.422 51.2976 287.68 50.4468C282.548 44.5613 277.415 38.676 272.283 32.7908C272.332 33.1326 272.382 33.4743 272.432 33.8158C277.564 27.2873 282.696 20.7584 287.829 14.2299C288.534 13.3335 286.883 12.4892 286.186 13.3761Z" fill="#5092D2"/>
<path d="M233.139 52.7222C241.503 44.2203 249.867 35.7183 258.231 27.2163C258.58 26.8624 258.605 26.3717 258.231 26.0201C254.059 22.1006 249.887 18.1807 245.715 14.2612C245.365 13.9316 244.721 13.9346 244.37 14.2612C240.158 18.1807 235.944 22.1006 231.731 26.0201C231.356 26.3693 231.383 26.8644 231.731 27.2163C240.137 35.7183 248.542 44.2203 256.948 52.7222C257.759 53.5432 259.099 52.3419 258.293 51.526C249.887 43.024 241.482 34.5221 233.077 26.0201C233.077 26.4187 233.077 26.8177 233.077 27.2163C237.289 23.2968 241.503 19.3769 245.715 15.4574C245.267 15.4574 244.819 15.4574 244.37 15.4574C248.542 19.3769 252.714 23.2968 256.886 27.2163C256.886 26.8177 256.886 26.4187 256.886 26.0201C248.522 34.5221 240.158 43.024 231.793 51.526C230.989 52.3429 232.329 53.5448 233.139 52.7222Z" fill="#5092D2"/>
<path d="M129.365 13.8182C129.365 26.2851 129.365 38.7519 129.365 51.2184C129.365 52.3097 131.268 52.3097 131.268 51.2184C131.268 38.7516 131.268 26.2847 131.268 13.8182C131.268 12.7273 129.365 12.7273 129.365 13.8182Z" fill="#5092D2"/>
<path d="M121.176 28.1026C127.52 31.6695 133.864 35.2361 140.208 38.8027C141.249 39.3878 142.202 37.9229 141.168 37.3419C134.824 33.775 128.48 30.2084 122.136 26.6418C121.095 26.0567 120.142 27.5216 121.176 28.1026Z" fill="#5092D2"/>
<path d="M78.6247 15.2837C86.533 27.7082 94.4408 40.1331 102.349 52.5577C102.953 53.5069 104.597 52.6545 103.992 51.704C96.0839 39.2794 88.176 26.8545 80.2678 14.4299C79.6639 13.4804 78.0197 14.3328 78.6247 15.2837Z" fill="#5092D2"/>
<path d="M102.349 14.4292C94.4412 26.8538 86.5334 39.2787 78.6247 51.7033C78.0197 52.6541 79.6635 53.5065 80.2678 52.557C88.1757 40.1324 96.0836 27.7075 103.992 15.283C104.597 14.3325 102.953 13.4801 102.349 14.4292Z" fill="#5092D2"/>
<path d="M51.4762 51.1301C51.4762 38.7055 51.4762 26.2807 51.4762 13.8561C50.9351 14.0554 50.3936 14.2551 49.8522 14.4544C54.8658 19.6946 59.8795 24.9352 64.8928 30.1752C65.6888 31.0072 67.0283 29.8046 66.2379 28.979C61.2243 23.7387 56.2106 18.4981 51.1973 13.2582C50.6425 12.6782 49.5732 13.1617 49.5732 13.8564C49.5732 26.281 49.5732 38.7059 49.5732 51.1304C49.5736 52.2211 51.4762 52.2211 51.4762 51.1301Z" fill="#5092D2"/>
<path d="M49.8526 28.939C53.2266 32.394 56.6006 35.8489 59.9747 39.3035C60.7806 40.1288 62.1204 38.9269 61.3198 38.1073C57.9457 34.6524 54.5717 31.1974 51.1977 27.7429C50.3921 26.9175 49.052 28.1195 49.8526 28.939Z" fill="#5092D2"/>
<path d="M160.304 51.1301C160.304 38.7055 160.304 26.2807 160.304 13.8561C159.763 14.0554 159.222 14.2551 158.68 14.4544C163.694 19.6946 168.708 24.9352 173.721 30.1752C174.517 31.0072 175.856 29.8046 175.066 28.979C170.052 23.7387 165.039 18.4981 160.025 13.2582C159.471 12.6782 158.401 13.1617 158.401 13.8564C158.401 26.281 158.401 38.7059 158.401 51.1304C158.402 52.2211 160.304 52.2211 160.304 51.1301Z" fill="#5092D2"/>
<path d="M158.681 28.939C162.055 32.394 165.429 35.8489 168.803 39.3035C169.609 40.1288 170.949 38.9269 170.148 38.1073C166.774 34.6524 163.4 31.1974 160.026 27.7429C159.22 26.9175 157.88 28.1195 158.681 28.939Z" fill="#5092D2"/>
<path d="M11.9029 51.1268C11.9029 38.702 11.9029 26.2774 11.9029 13.8529C11.4258 14.0965 10.9486 14.3398 10.4715 14.5834C16.1035 17.837 21.7355 21.0913 27.3671 24.3452C27.3671 23.8586 27.3671 23.3713 27.3671 22.8847C22.0601 25.8429 16.753 28.8011 11.4463 31.7596C10.9197 32.0533 10.8219 32.6854 11.2538 33.0885C17.9143 39.3006 24.5753 45.5133 31.2362 51.7254C32.0844 52.5166 33.4276 51.3184 32.5813 50.5292C25.9208 44.3171 19.2598 38.1044 12.5989 31.8923C12.535 32.3352 12.4707 32.7778 12.4064 33.2211C17.7134 30.2626 23.0205 27.3044 28.3272 24.3456C28.9489 23.9991 28.9326 23.2346 28.3272 22.8851C22.6951 19.6308 17.0631 16.3772 11.4315 13.1226C10.8177 12.768 10 13.235 10 13.8532C10 26.2781 10 38.7026 10 51.1272C10.0004 52.2181 11.9029 52.2181 11.9029 51.1268Z" fill="#5092D2"/>
<path d="M193.79 52.142C193.79 39.7171 193.79 27.2926 193.79 14.868C193.313 15.1116 192.835 15.3549 192.358 15.5986C197.99 18.8522 203.622 22.1064 209.254 25.3604C209.254 24.8738 209.254 24.3865 209.254 23.8999C203.947 26.8581 198.64 29.8162 193.333 32.7747C192.806 33.0685 192.709 33.7006 193.141 34.1036C199.801 40.3157 206.462 46.5285 213.123 52.7406C213.971 53.5317 215.314 52.3335 214.468 51.5444C207.807 45.3323 201.147 39.1195 194.486 32.9074C194.422 33.3504 194.357 33.793 194.293 34.2362C199.6 31.2777 204.907 28.3196 210.214 25.3607C210.836 25.0142 210.819 24.2498 210.214 23.9002C204.582 20.6459 198.95 17.3924 193.318 14.1378C192.704 13.7831 191.887 14.2501 191.887 14.8683C191.887 27.2932 191.887 39.7178 191.887 52.1423C191.887 53.2333 193.79 53.2333 193.79 52.142Z" fill="#5092D2"/>
</g>
<defs>
<filter id="filter0_d_224_405" x="0" y="0" width="300" height="62" filterUnits="userSpaceOnUse" color-interpolation-filters="sRGB">
<feFlood flood-opacity="0" result="BackgroundImageFix"/>
<feColorMatrix in="SourceAlpha" type="matrix" values="0 0 0 0 0 0 0 0 0 0 0 0 0 0 0 0 0 0 127 0" result="hardAlpha"/>
<feOffset dx="1" dy="-2"/>
<feGaussianBlur stdDeviation="5.5"/>
<feComposite in2="hardAlpha" operator="out"/>
<feColorMatrix type="matrix" values="0 0 0 0 0.313726 0 0 0 0 0.572549 0 0 0 0 0.823529 0 0 0 1 0"/>
<feBlend mode="normal" in2="BackgroundImageFix" result="effect1_dropShadow_224_405"/>
<feBlend mode="normal" in="SourceGraphic" in2="effect1_dropShadow_224_405" result="shape"/>
</filter>
</defs>
</svg>
